<?xml version="1.0" standalone="no"?>
<!DOCTYPE svg PUBLIC "-//W3C//DTD SVG 20010904//EN"
 "http://www.w3.org/TR/2001/REC-SVG-20010904/DTD/svg10.dtd">
<svg version="1.0" xmlns="http://www.w3.org/2000/svg"
 width="700.000000pt" height="700.000000pt" viewBox="0 0 700.000000 700.000000"
 preserveAspectRatio="xMidYMid meet">
<metadata>
Created by potrace 1.14, written by Peter Selinger 2001-2017
</metadata>
<g transform="translate(0.000000,700.000000) scale(0.100000,-0.100000)"
fill="#000000" stroke="none">
<path d="M5180 6949 c-30 -5 -122 -26 -205 -48 -82 -22 -204 -54 -270 -71 -66
-17 -142 -38 -170 -46 -27 -8 -52 -14 -55 -14 -3 0 -29 -7 -58 -15 -47 -14
-559 -152 -822 -222 -52 -13 -111 -29 -130 -34 -19 -5 -42 -11 -50 -13 -8 -2
-49 -13 -90 -25 -41 -11 -115 -31 -165 -44 -406 -109 -486 -130 -530 -143 -27
-7 -187 -50 -355 -94 -168 -45 -314 -85 -325 -90 -11 -5 -31 -12 -45 -16 -55
-15 -200 -90 -295 -152 -55 -36 -102 -68 -105 -71 -3 -3 -27 -24 -55 -46 -119
-96 -261 -250 -357 -390 -123 -177 -169 -290 -261 -635 -36 -135 -73 -272 -82
-305 -9 -33 -27 -100 -40 -150 -13 -49 -38 -142 -55 -205 -85 -317 -168 -627
-221 -825 -33 -121 -82 -305 -110 -410 -28 -104 -66 -246 -84 -315 -19 -69
-41 -152 -50 -185 -9 -33 -27 -100 -40 -150 -13 -49 -40 -148 -59 -219 -64
-237 -67 -359 -11 -499 44 -109 145 -197 269 -232 59 -17 195 -22 267 -10 38
6 383 96 724 188 170 46 161 44 156 27 -2 -8 -32 -121 -66 -250 -35 -129 -84
-312 -109 -406 -58 -219 -71 -314 -54 -422 35 -226 211 -367 453 -365 98 1
144 10 320 58 33 9 112 30 175 46 63 17 282 76 485 131 204 54 377 101 385
103 8 2 142 38 298 80 156 42 291 78 300 80 9 2 94 24 187 50 94 25 179 47
190 50 11 2 52 13 90 24 80 22 215 59 615 166 282 76 383 111 490 168 311 169
591 454 748 762 65 126 75 159 213 674 72 267 147 549 169 626 21 77 72 268
114 425 41 157 83 312 92 345 9 33 22 83 29 110 22 82 88 328 191 710 125 464
135 510 135 625 1 274 -166 448 -433 452 -100 2 -158 -6 -274 -37 -54 -15
-103 -28 -109 -29 -5 -1 -30 -8 -55 -15 -25 -7 -53 -15 -64 -17 -10 -2 -33 -8
-51 -14 -18 -6 -41 -12 -51 -14 -21 -4 -392 -104 -411 -111 -7 -2 -10 1 -8 8
20 55 227 854 232 897 40 328 -122 539 -422 553 -38 2 -95 0 -125 -4z"/>
</g>
</svg>
