<svg width="100%" viewBox="0 0 231 22" fill="none"
  xmlns="http://www.w3.org/2000/svg" preserveAspectRatio="xMidYMid meet">
  <path fill-rule="evenodd" clip-rule="evenodd" d="M165.258 0.567151C165.182 0.637877 161.972 0.735826 158.124 0.784927C154.276 0.833774 149.784 0.9391 148.141 1.01848C143.744 1.23091 142.707 1.23752 142.392 1.05511C142.236 0.964541 142.044 0.951058 141.965 1.02509C141.78 1.19835 138.918 1.3632 133.533 1.51076C131.173 1.57564 129.146 1.68376 129.029 1.75144C128.912 1.81911 127.728 1.94861 126.398 2.03918C125.068 2.12975 123.941 2.3002 123.893 2.41799C123.846 2.53579 123.541 2.54317 123.215 2.43428C122.685 2.25772 121.986 2.23914 120.526 2.36355C120.201 2.39128 120.114 2.53731 120.24 2.84846C120.408 3.26315 120.386 3.26239 119.928 2.83701C119.525 2.46201 119.164 2.40858 117.908 2.53731C117.066 2.62356 115.798 2.68029 115.088 2.66325C114.292 2.64417 113.799 2.74237 113.799 2.91969C113.799 3.11228 113.508 3.14561 112.917 3.0212C112.431 2.91893 111.912 2.84693 111.763 2.86143C111.614 2.87568 110.575 2.91028 109.455 2.93827C108.335 2.96625 107.307 3.04766 107.171 3.11864C106.87 3.27536 106.04 3.35423 102.668 3.5458C101.25 3.62645 99.7227 3.73839 99.2748 3.79411C97.3231 4.03783 95.0576 4.21923 93.1665 4.28309C92.0466 4.32099 90.4584 4.48458 89.6372 4.64639C88.1107 4.94735 84.8065 5.22772 83.1448 5.19719C82.6349 5.18777 82.1178 5.32821 81.9953 5.50909C81.8143 5.77648 81.7719 5.77546 81.7684 5.50426C81.7646 5.19134 81.128 5.20406 79.0495 5.55794C77.4885 5.82406 75.9907 6.00952 74.7058 6.09628C73.8846 6.15199 72.5408 6.26037 71.7195 6.33746C70.8983 6.4148 69.4323 6.52725 68.4618 6.58754C67.4913 6.64784 66.6972 6.71297 66.6972 6.73205C66.6972 6.76945 66.2843 6.86969 65.2407 7.08594C64.8875 7.15921 63.6658 7.29201 62.5259 7.38131C60.2919 7.55609 59.3672 7.65633 59.3672 7.72349C59.3672 7.7469 58.6342 7.8189 57.7383 7.88352C55.1354 8.07153 54.0362 8.19466 52.4445 8.47604C51.6233 8.62131 50.2794 8.80881 49.4582 8.89277C48.637 8.97698 47.4846 9.09477 46.8971 9.15481C46.3099 9.21485 45.7107 9.37513 45.566 9.51073C45.3961 9.66999 45.1251 9.66821 44.8015 9.5059C44.4738 9.34155 44.128 9.34079 43.8041 9.5031C43.5313 9.63997 42.6454 9.77659 41.8359 9.80661C41.026 9.83663 40.0582 9.96867 39.6849 10.0997C39.3116 10.231 38.5787 10.3691 38.0561 10.407C35.8212 10.5683 33.8259 10.8711 33.5329 11.0932C33.3353 11.2433 33.1567 11.24 33.0543 11.0843C32.9482 10.9237 32.5811 10.9232 32.0121 11.0827C31.5286 11.2183 30.4753 11.3847 29.6709 11.4524C28.8662 11.5198 28.1003 11.6376 27.9684 11.7142C27.8367 11.7905 27.2121 11.9019 26.5806 11.962C24.971 12.1151 23.9741 12.2706 22.7174 12.5644C22.1202 12.7041 21.4179 12.757 21.1564 12.682C20.895 12.6069 20.6811 12.639 20.6808 12.7535C20.6803 12.8677 20.3273 12.9728 19.896 12.987C19.4648 13.001 18.8847 13.1002 18.6072 13.2073C18.3295 13.3144 17.4681 13.4266 16.6928 13.4564C15.9177 13.4862 15.1179 13.6391 14.9157 13.7963C14.7134 13.9538 14.3094 14.0884 14.0176 14.096C12.3217 14.1392 10.8611 14.3339 10.5665 14.556C10.3811 14.6961 9.8322 14.8903 9.34706 14.9875C8.86166 15.0846 8.46421 15.2411 8.46367 15.3347C8.46285 15.4286 8.06595 15.5319 7.58136 15.5642C6.09012 15.6637 5.61068 15.814 5.69729 16.1547C5.75783 16.3928 5.68398 16.4091 5.42581 16.2142C4.93036 15.8402 3.45758 16.099 2.79652 16.6762C2.49219 16.9418 2.04561 17.1591 1.80399 17.1591C1.20972 17.1591 -0.312192 18.6037 0.0570206 18.8174C0.213936 18.9084 0.268504 19.201 0.178101 19.4679C-0.00351857 20.0039 0.289408 20.6478 0.557901 20.3029C0.65129 20.183 1.00259 19.9408 1.33841 19.7648C1.87702 19.4824 1.94924 19.5015 1.94924 19.9258C1.94924 20.1963 2.19194 20.4665 2.50333 20.5428C2.97 20.6573 3.0281 20.5916 2.87118 20.1283C2.76856 19.8256 2.48867 19.4259 2.24895 19.2402C1.86779 18.9443 1.8982 18.9199 2.4922 19.0448C2.86548 19.1232 3.25858 19.1891 3.36609 19.1908C3.47332 19.1929 3.4907 19.3661 3.40491 19.576C3.31885 19.7859 3.38374 19.9576 3.54907 19.9576C3.7144 19.9576 3.84959 19.8467 3.84959 19.7111C3.84959 19.5758 4.04506 19.5351 4.28423 19.621C4.52314 19.707 4.82692 19.6175 4.95886 19.4223C5.15433 19.1331 5.19939 19.1448 5.20292 19.4852C5.20509 19.7152 5.42092 19.9877 5.68208 20.0907C6.39499 20.3721 8.43869 20.2947 8.85568 19.9704C9.13178 19.7556 9.32887 19.7859 9.65763 20.0943C10.0095 20.424 10.0936 20.4334 10.0936 20.1423C10.0936 19.9441 10.3271 19.5839 10.6127 19.342C11.1174 18.9138 11.1253 18.9278 10.9037 19.848C10.733 20.5586 10.7745 20.8862 11.0704 21.1638C11.5995 21.6596 12.2644 21.3834 12.2695 20.6652C12.2725 20.2678 12.3437 20.1879 12.4949 20.4115C12.6236 20.6013 12.9176 20.6657 13.1969 20.5652C13.4613 20.47 13.7586 20.5148 13.8574 20.6646C14.061 20.9738 16.0662 20.4927 16.0662 20.1347C16.0662 20.0207 15.9568 19.991 15.8232 20.0683C15.6894 20.1459 15.5091 20.0355 15.422 19.823C15.2933 19.5086 15.3633 19.487 15.801 19.7063C16.0961 19.8543 16.3377 19.8966 16.3377 19.7999C16.3377 19.7035 16.582 19.8317 16.8806 20.0848C17.369 20.499 17.4236 20.5028 17.4236 20.1243C17.4236 19.8928 17.6068 19.7032 17.8308 19.7032C18.0548 19.7032 18.5035 19.4544 18.8282 19.1501C19.211 18.7914 19.3606 18.738 19.2542 18.9982C19.0202 19.5691 19.3185 19.7447 19.7827 19.3094C20.2991 18.8258 20.6813 18.8397 20.6813 19.3427C20.6813 19.5643 20.8342 19.6948 21.0207 19.6328C21.2075 19.5707 21.328 19.2598 21.2889 18.942C21.2262 18.4301 21.2696 18.4042 21.669 18.7148C22.0765 19.0316 22.1077 18.9863 21.9915 18.2457C21.8889 17.5896 21.9345 17.4812 22.2198 17.7033C22.4346 17.8702 22.5108 18.2259 22.4112 18.5976C22.2573 19.1718 22.3132 19.2102 23.2202 19.1529C24.2003 19.0911 24.5841 18.722 24.3254 18.0903C24.2486 17.9028 24.3637 17.6112 24.5812 17.442C24.9088 17.1873 25.0071 17.267 25.1581 17.9101C25.2965 18.5019 25.4884 18.6856 25.9676 18.6856C26.6403 18.6856 27.0405 18.132 26.6395 17.7562C26.4959 17.6216 26.6276 17.3924 26.9607 17.1975C27.271 17.0159 27.4442 16.9902 27.3451 17.1403C27.2395 17.3003 27.3902 17.4135 27.7078 17.4135C28.0064 17.4135 28.3262 17.299 28.4185 17.1591C28.759 16.6427 29.1029 16.9222 28.9284 17.5738C28.7926 18.0803 28.8409 18.2147 29.1268 18.1266C29.3345 18.0628 29.5422 17.7127 29.5883 17.3489C29.673 16.6828 30.3382 15.9476 30.6186 16.2104C30.7017 16.288 30.5624 16.648 30.3094 17.0098C30.0327 17.4056 29.9698 17.6679 30.1519 17.6679C30.3183 17.6679 30.4546 17.5779 30.4546 17.4677C30.4546 17.3575 30.8301 17.2405 31.2886 17.2077C31.8003 17.1713 32.0566 17.2487 31.9513 17.4082C31.6888 17.8063 32.2453 17.7168 32.6132 17.3013C32.7915 17.0998 33.0996 16.9932 33.2976 17.0645C33.4955 17.1354 33.7279 17.0869 33.8142 16.9561C33.9002 16.8256 34.2648 16.7711 34.6243 16.8355C34.9837 16.8999 35.3603 16.8274 35.4613 16.6742C35.6969 16.3168 37.5131 16.3089 37.5131 16.6653C37.5131 16.8134 37.6483 16.8564 37.8136 16.7607C38.0284 16.6363 38.0199 16.5322 37.7846 16.3959C37.3296 16.1323 37.8473 15.8545 39.2362 15.6166C40.0205 15.482 40.4277 15.5291 40.7016 15.7858C41.2318 16.2827 41.6792 16.23 41.4639 15.6962C41.2994 15.2879 41.3209 15.2849 41.7235 15.6578C42.2344 16.131 43.2136 16.0247 43.9496 15.4161C44.6441 14.8419 45.2226 14.747 45.0206 15.2406C44.9324 15.4563 44.9785 15.6326 45.1229 15.6326C45.2676 15.6326 45.386 15.5054 45.386 15.35C45.386 15.1645 45.7134 15.1248 46.3362 15.2342C47.1612 15.3792 47.2864 15.3352 47.2864 14.8994C47.2864 14.3715 48.6101 13.2167 48.8889 13.5014C48.978 13.5925 48.8984 13.7182 48.7116 13.7805C48.5251 13.8431 48.3723 14.1029 48.3723 14.358C48.3723 14.9864 49.3103 14.7516 49.6499 14.0382L49.9034 13.5058L50.4556 14.0232C50.953 14.4893 51.0795 14.5056 51.7262 14.1881C52.3541 13.88 52.4445 13.8846 52.4445 14.2252C52.4445 14.4453 52.6807 14.615 52.9874 14.615C53.2861 14.615 53.5304 14.5005 53.5304 14.3606C53.5304 14.2207 53.8358 14.1062 54.2091 14.1062C54.5824 14.1062 54.8878 13.9795 54.8878 13.8245C54.8878 13.6696 55.0559 13.6035 55.2614 13.6772C55.4864 13.7581 55.6211 13.6533 55.6007 13.4132C55.5801 13.172 55.8084 12.9959 56.179 12.9669C56.742 12.9229 56.761 12.9623 56.4157 13.4559C56.0693 13.9515 56.0902 13.9909 56.6836 13.9668C57.0377 13.952 57.4085 13.864 57.5079 13.7711C57.6072 13.678 57.8388 13.7187 58.0223 13.8614C58.4716 14.211 59.8461 13.6302 59.6577 13.1704C59.491 12.7629 59.8252 12.729 60.2341 13.1122C60.4464 13.3111 60.6855 13.3124 61.0756 13.1168C61.5 12.9041 61.6547 12.927 61.775 13.2203C61.8597 13.4277 62.1545 13.5973 62.4301 13.5973C63.1375 13.5973 64.5012 12.2016 64.2921 11.6913C64.1873 11.4348 64.2338 11.3445 64.4165 11.4504C64.5769 11.5435 64.6451 11.8465 64.5677 12.124C64.3994 12.727 64.6133 13.3429 64.9907 13.3429C65.14 13.3429 65.1918 13.1712 65.1058 12.9613C64.9307 12.5337 65.6113 12.4222 65.8827 12.8341C65.975 12.974 66.2571 13.0794 66.5096 13.0684C66.7922 13.056 66.8383 12.999 66.6293 12.9201C66.4428 12.8494 66.2986 12.5436 66.309 12.2406C66.3274 11.7068 66.3356 11.7053 66.5614 12.1981C66.6898 12.4779 66.8033 12.5571 66.8139 12.3739C66.8242 12.1907 66.9551 12.1116 67.1044 12.1981C67.2537 12.2846 67.3797 12.2055 67.3846 12.0223C67.3897 11.8208 67.5548 11.8897 67.8024 12.1968C68.1537 12.6324 68.2484 12.6504 68.4697 12.324C68.6114 12.1149 68.6741 11.8063 68.6084 11.6386C68.54 11.4628 68.6472 11.3903 68.862 11.4674C69.305 11.6269 69.6115 12.2772 69.3968 12.6026C69.197 12.9059 69.6102 12.8959 70.5079 12.5761C70.9847 12.4062 71.179 12.1892 71.077 11.9401C70.9917 11.7323 71.0406 11.5621 71.185 11.5621C71.3297 11.5621 71.4481 11.6694 71.4481 11.8007C71.4481 12.3235 72.6046 11.9302 72.8505 11.3237C73.059 10.81 73.1557 10.7599 73.3579 11.0619C73.495 11.2669 73.5382 11.6437 73.4532 11.8989C73.3186 12.3044 73.4136 12.3423 74.206 12.1981C74.705 12.1073 75.3294 12.0347 75.5941 12.0365C75.8585 12.0386 76.0041 11.9325 75.9174 11.8009C75.8306 11.6697 75.94 11.5621 76.1604 11.5621C76.3806 11.5621 76.6124 11.705 76.6751 11.8801C76.7642 12.1281 76.8883 12.1215 77.2393 11.85C77.4869 11.6587 77.9364 11.5626 78.2383 11.6366C78.5405 11.7106 78.961 11.6089 79.1728 11.4102C79.4092 11.1886 79.6221 11.1469 79.7244 11.3018C79.9511 11.6455 81.1882 11.5241 81.543 11.1237C81.7613 10.8772 81.6894 10.7988 81.245 10.7988C80.7188 10.7988 80.6936 10.7408 80.9963 10.2264C81.2876 9.73156 81.3468 9.71426 81.4331 10.0992C81.4877 10.3442 81.7594 10.5444 82.0363 10.5444C82.3132 10.5444 82.7014 10.6953 82.8988 10.8797C83.0973 11.0652 83.9875 11.2425 84.8926 11.2769C86.2948 11.33 86.639 11.2494 87.3087 10.71C88.0227 10.1351 89.0245 10.0328 88.6694 10.5711C88.5869 10.6963 88.6384 10.7988 88.7842 10.7988C88.9297 10.7988 89.1106 10.6556 89.186 10.4808C89.2954 10.2264 89.3272 10.2264 89.3443 10.4808C89.3777 10.9779 91.1901 10.881 91.4979 10.3656C91.7086 10.0129 91.8321 9.99106 92.1636 10.249C92.4894 10.5024 92.5991 10.4999 92.7123 10.2371C92.8108 10.0081 92.9216 9.99183 93.078 10.1837C93.2012 10.335 93.7298 10.4495 94.2524 10.4381C95.0554 10.4205 95.1906 10.3345 95.1246 9.8837C95.0817 9.59036 95.2422 9.19832 95.4811 9.01234C95.8647 8.71417 95.8951 8.75081 95.7406 9.3273C95.641 9.699 95.692 10.0531 95.8593 10.1501C96.0208 10.2434 96.1527 10.1948 96.1527 10.0419C96.1527 9.88014 96.4652 9.81196 96.8993 9.87887C97.3098 9.94196 97.6459 10.0127 97.6459 10.0356C97.6459 10.0585 97.9977 10.1312 98.4277 10.1969C99.1181 10.3022 99.192 10.2523 99.0576 9.771C98.9161 9.26472 98.9397 9.25479 99.3828 9.63056C99.9776 10.1348 100.496 10.1526 100.496 9.66898C100.496 9.46723 100.639 9.21969 100.814 9.11843C101.028 8.99479 101.075 9.07315 100.958 9.35783C100.831 9.66949 100.935 9.78117 101.353 9.78117C101.804 9.78117 101.857 9.70917 101.611 9.43136C101.362 9.15023 101.435 9.08154 101.984 9.08154C102.384 9.08154 102.668 9.22706 102.668 9.43136C102.668 9.89998 103.113 9.87785 103.309 9.39956C103.395 9.18967 103.622 9.0271 103.814 9.03804C104.086 9.05381 104.088 9.08587 103.822 9.18636C103.636 9.25709 103.483 9.42373 103.483 9.55704C103.483 9.70002 103.704 9.6878 104.026 9.52676C104.324 9.37691 104.569 9.34791 104.569 9.4624C104.569 9.95265 106.064 9.74276 106.918 9.13268C107.79 8.50937 107.826 8.50428 107.826 9.00496C107.826 9.6616 108.768 9.71553 109.162 9.08154C109.316 8.83451 109.442 8.77777 109.447 8.95434C109.452 9.13878 109.809 9.27235 110.299 9.27235C110.88 9.27235 111.1 9.16931 111.006 8.94085C110.83 8.51064 112.72 8.36308 112.999 8.78541C113.107 8.94899 113.337 9.00115 113.51 8.90066C113.74 8.7676 113.745 8.62716 113.527 8.38191C113.349 8.18067 113.332 7.98655 113.483 7.89853C113.623 7.81762 113.804 7.99241 113.886 8.28651L114.036 8.82128L114.841 8.28371C115.785 7.65429 116.087 7.60417 115.879 8.11096C115.797 8.31195 115.876 8.53176 116.054 8.59969C116.232 8.66787 116.14 8.73249 115.849 8.74343C115.526 8.75564 115.42 8.85232 115.577 8.99072C115.719 9.11563 116.228 9.16041 116.709 9.09019C117.404 8.98843 117.571 8.8513 117.523 8.41778C117.488 8.09621 117.603 7.89904 117.803 7.93669C117.99 7.9718 118.145 7.85731 118.147 7.68228C118.15 7.47035 118.239 7.49147 118.414 7.74588C118.559 7.95577 118.681 8.01301 118.686 7.87309C118.69 7.73316 118.797 7.77056 118.922 7.95602C119.048 8.14149 119.655 8.35672 120.271 8.43406C121.219 8.55338 121.479 8.48164 121.954 7.96976C122.462 7.42176 122.501 7.41337 122.365 7.88225C122.253 8.26793 122.354 8.41397 122.758 8.45467C123.61 8.54015 124.187 8.53405 125.065 8.4305C125.513 8.37758 126.246 8.31271 126.694 8.28651C127.437 8.24275 127.466 8.2084 127.027 7.89624C126.572 7.57237 126.575 7.54668 127.095 7.41922C127.45 7.33246 127.644 7.40853 127.644 7.63445C127.644 7.83569 127.812 7.92422 128.039 7.84256C128.256 7.76471 128.582 7.78709 128.764 7.89242C128.946 7.998 129.593 8.06211 130.202 8.03515C130.811 8.00818 131.89 7.9606 132.599 7.92957C133.417 7.89369 133.888 7.75682 133.888 7.55507C133.888 7.36121 134.26 7.23706 134.839 7.23706C135.361 7.23706 135.789 7.35841 135.789 7.50648C135.789 7.65455 135.916 7.70212 136.072 7.61181C136.228 7.52149 136.531 7.58407 136.745 7.75071C137.015 7.96035 137.367 7.9807 137.887 7.81635C138.301 7.68584 139.111 7.62554 139.686 7.68228C140.425 7.75504 140.677 7.69958 140.542 7.49427C140.424 7.31542 140.511 7.234 140.769 7.28361C140.999 7.32788 141.385 7.13529 141.625 6.85544C142.055 6.35374 142.059 6.3545 141.893 6.91904C141.772 7.32941 141.841 7.49147 142.134 7.49147C142.359 7.49147 142.624 7.3691 142.723 7.21976C142.821 7.07016 143.073 7.00936 143.282 7.08441C143.493 7.16023 143.662 7.06685 143.662 6.87477C143.662 6.21839 144.462 6.21661 144.92 6.87198C145.287 7.39632 145.554 7.49757 146.443 7.44847C147.05 7.41489 147.583 7.23807 147.663 7.04396C147.74 6.85417 147.987 6.76487 148.211 6.84526C148.434 6.92566 148.806 6.84628 149.037 6.66896C149.398 6.3919 149.435 6.42676 149.3 6.91904C149.213 7.23375 149.178 7.49147 149.221 7.49147C149.497 7.49147 150.843 6.70407 151.041 6.42701C151.191 6.2156 151.218 6.34331 151.111 6.77327L150.943 7.45458L153.317 7.35688C154.623 7.30295 155.813 7.14547 155.961 7.00656C156.11 6.86765 156.305 6.3283 156.395 5.80803C156.485 5.28776 156.712 4.81404 156.9 4.75553C157.162 4.67361 157.175 4.80921 156.959 5.34245C156.804 5.72356 156.738 6.09195 156.811 6.1609C156.885 6.22984 156.823 6.50028 156.674 6.76156C156.463 7.12995 156.496 7.23706 156.819 7.23706C157.048 7.23706 157.236 7.12969 157.236 6.99842C157.236 6.86714 157.45 6.77225 157.711 6.78777C157.972 6.80303 158.448 6.73459 158.768 6.63588C159.118 6.52827 159.497 6.58704 159.718 6.78319C160.314 7.31185 161.144 7.16684 161.49 6.47382L161.807 5.83779L161.829 6.54582C161.851 7.25029 161.858 7.25308 163.412 7.13097C164.271 7.06355 165.545 7.00249 166.244 6.99537C167.302 6.98468 167.547 6.89055 167.702 6.43235C167.867 5.94363 167.917 5.92964 168.142 6.30693C168.339 6.63792 168.512 6.67303 168.924 6.46645C169.287 6.28454 169.452 6.28403 169.452 6.46492C169.452 6.60968 169.636 6.72823 169.86 6.72823C170.084 6.72823 170.267 6.83839 170.267 6.97298C170.267 7.36299 175.334 7.11494 175.873 6.69847C176.246 6.40997 176.349 6.40717 176.448 6.6832C176.537 6.92922 176.76 6.86078 177.278 6.42879C177.668 6.10365 177.821 6.04081 177.618 6.28912C177.159 6.84857 177.435 7.17065 177.997 6.73332C178.334 6.47153 178.413 6.47662 178.42 6.7608C178.426 6.99537 178.558 6.94932 178.824 6.6196C179.042 6.34992 179.301 6.20516 179.4 6.29752C179.498 6.39012 179.752 6.26724 179.962 6.02453C180.243 5.70118 180.383 5.66861 180.487 5.90292C180.566 6.07872 180.772 6.15479 180.945 6.0716C181.119 5.98866 180.97 6.14334 180.614 6.41531C180.196 6.73434 180.073 6.97171 180.267 7.0839C180.432 7.17956 180.837 6.96713 181.167 6.61146C181.804 5.9248 182.64 5.72382 182.398 6.31558C182.257 6.66005 182.672 7.23706 183.062 7.23706C183.171 7.23706 183.314 6.97934 183.38 6.66463C183.498 6.10467 183.504 6.10365 183.689 6.61807C183.861 7.0956 184.07 7.13911 185.963 7.0895C187.11 7.05948 188.079 7.01089 188.117 6.98163C188.322 6.82008 190.587 6.86485 191.136 7.04116C191.547 7.1732 191.923 7.13682 192.175 6.94092C192.437 6.73714 192.631 6.72137 192.752 6.89411C193.089 7.37317 194.121 7.45763 194.486 7.03607C194.784 6.69262 194.765 6.65751 194.361 6.79972C194.066 6.90327 193.885 6.84552 193.885 6.64708C193.885 6.07796 194.907 6.21687 195.081 6.80965C195.217 7.2742 195.286 7.30244 195.51 6.98265C195.657 6.77276 195.779 6.7318 195.782 6.89182C195.788 7.32712 196.571 7.52429 197.147 7.23553C197.438 7.08924 197.717 7.0778 197.803 7.20856C197.983 7.48129 200.156 7.40904 200.667 7.11316C200.907 6.97425 200.963 7.00198 200.835 7.1961C200.711 7.38436 200.865 7.48409 201.268 7.47697C201.87 7.46628 203.795 7.67439 203.795 7.7502C203.795 7.77056 204.375 7.82271 205.084 7.86647C205.793 7.91023 206.374 7.87232 206.375 7.78226C206.375 7.69245 206.925 7.6085 207.596 7.59629C208.495 7.5795 208.817 7.67134 208.817 7.94381C208.817 8.18576 209 8.26895 209.347 8.18423C209.638 8.11274 209.934 8.18525 210.004 8.34527C210.074 8.5053 210.141 8.4277 210.153 8.17304C210.172 7.75173 210.213 7.74588 210.601 8.10943C211.003 8.48596 211.278 8.54066 213.298 8.64675C213.746 8.67041 214.377 8.76811 214.7 8.86402C215.023 8.96019 215.362 8.92381 215.455 8.78363C215.562 8.62157 215.86 8.61317 216.274 8.76047C216.728 8.92202 216.965 8.89989 217.057 8.6872C217.13 8.51929 217.2 8.58213 217.211 8.82713C217.223 9.07213 217.324 9.27668 217.436 9.28202C218.293 9.32247 219.896 9.62369 220.287 9.81755C220.674 10.0096 220.763 9.94578 220.766 9.47206C220.77 9.00344 220.821 8.96477 221.033 9.27235C221.25 9.58655 221.297 9.59036 221.301 9.29347C221.303 9.09528 221.382 9.00547 221.476 9.09375C221.571 9.18203 221.876 9.14006 222.155 9.00013C222.739 8.70705 222.757 8.75259 222.398 9.63743C222.191 10.1475 222.217 10.29 222.517 10.29C222.729 10.29 222.974 10.1806 223.062 10.0468C223.242 9.77354 224.058 9.98852 224.339 10.3834C224.44 10.5248 224.852 10.6823 225.254 10.7327C225.657 10.7833 226.161 10.9878 226.374 11.1876C226.686 11.4799 226.865 11.4903 227.291 11.2407C227.582 11.0703 227.82 10.854 227.82 10.7601C227.82 10.5253 228.379 10.634 229.11 11.0107C229.575 11.2504 229.721 11.2535 229.721 11.0227C229.721 10.8416 229.939 10.9054 230.265 11.182C231.073 11.8666 231.253 11.4348 230.613 10.3508C230.181 9.61962 230.11 9.25352 230.308 8.76811C230.484 8.33357 230.47 8.10689 230.261 8.04176C230.094 7.98961 229.841 7.66167 229.7 7.31287C229.558 6.96433 229.208 6.62164 228.922 6.55142C228.635 6.4812 228.341 6.27716 228.268 6.09806C228.122 5.74188 223.139 4.25942 222.693 4.43955C222.635 4.46295 222.493 4.3388 222.378 4.16377C222.262 3.98899 221.027 3.64528 219.632 3.40028C218.238 3.15502 216.792 2.88764 216.418 2.80572C216.045 2.7238 215.068 2.59303 214.246 2.51543C213.425 2.43758 212.517 2.30885 212.227 2.22922C211.938 2.14934 211.022 2.05037 210.191 2.00915C209.361 1.96769 208.376 1.85854 208.002 1.76645C207.629 1.67435 206.285 1.55961 205.016 1.51127C203.747 1.46293 202.709 1.40696 202.709 1.38712C202.709 1.36727 202.189 1.30672 201.555 1.25279C200.848 1.19275 200.401 1.26093 200.401 1.42859C200.401 1.61405 200.279 1.60744 200.022 1.40798C199.814 1.24592 198.654 1.09506 197.443 1.07292C196.233 1.05053 195.243 0.968612 195.243 0.890762C195.243 0.813167 193.258 0.719035 190.831 0.681636C188.405 0.644492 186.237 0.608875 186.013 0.602514C185.789 0.596154 184.811 0.631771 183.841 0.681381C182.87 0.730991 181.771 0.700208 181.397 0.612945C181.024 0.525682 180.322 0.537384 179.836 0.63864C179.351 0.74015 178.954 0.728447 178.954 0.612436C178.954 0.496424 178.618 0.465132 178.208 0.542727C177.155 0.741423 167.625 0.783655 166.405 0.595136C165.85 0.509145 165.333 0.496679 165.258 0.567151ZM189.266 5.7663C189.268 5.8668 189.095 5.88588 188.88 5.80879C188.666 5.7317 188.56 5.49663 188.646 5.28648C188.774 4.97585 188.846 4.96796 189.033 5.244C189.159 5.43074 189.264 5.66556 189.266 5.7663ZM137.167 5.39257C137.179 5.49739 137.229 5.78437 137.279 6.02987C137.329 6.27538 137.273 6.42014 137.155 6.3517C136.831 6.1642 136.618 5.20177 136.9 5.20177C137.035 5.20177 137.155 5.28776 137.167 5.39257ZM168.638 5.31396C168.638 5.37578 168.516 5.49688 168.366 5.58338C168.217 5.66988 168.095 5.61925 168.095 5.47119C168.095 5.32312 168.217 5.20177 168.366 5.20177C168.516 5.20177 168.638 5.25214 168.638 5.31396ZM157.914 6.21941C158.007 6.35934 157.953 6.47382 157.795 6.47382C157.637 6.47382 157.507 6.35934 157.507 6.21941C157.507 6.07949 157.561 5.965 157.627 5.965C157.693 5.965 157.822 6.07949 157.914 6.21941ZM134.16 6.58602C134.16 6.64784 134.038 6.76894 133.888 6.85544C133.739 6.94194 133.617 6.89131 133.617 6.74324C133.617 6.59518 133.739 6.47382 133.888 6.47382C134.038 6.47382 134.16 6.5242 134.16 6.58602ZM135.715 6.62749C135.625 6.71195 135.391 6.72111 135.195 6.64759C134.978 6.56643 135.043 6.50613 135.359 6.49392C135.645 6.48298 135.805 6.54302 135.715 6.62749ZM136.739 6.72823C136.831 6.86816 136.709 6.98265 136.467 6.98265C136.226 6.98265 136.104 6.86816 136.196 6.72823C136.288 6.58831 136.41 6.47382 136.467 6.47382C136.525 6.47382 136.647 6.58831 136.739 6.72823ZM139.59 6.69847C139.59 6.82211 139.315 6.98824 138.979 7.06762C138.389 7.20678 138.386 7.19915 138.895 6.84272C139.509 6.41251 139.59 6.39572 139.59 6.69847ZM129.816 6.84043C129.816 6.90225 129.694 7.02335 129.545 7.10985C129.395 7.19635 129.273 7.14572 129.273 6.99766C129.273 6.84959 129.395 6.72823 129.545 6.72823C129.694 6.72823 129.816 6.77861 129.816 6.84043ZM117.255 7.13631C117.164 7.22077 116.93 7.22993 116.734 7.15641C116.518 7.07525 116.582 7.01496 116.898 7.00274C117.185 6.9918 117.345 7.05184 117.255 7.13631ZM120.228 8.04812C120.142 8.25089 120.077 8.19059 120.064 7.8942C120.053 7.62605 120.117 7.47595 120.207 7.56041C120.297 7.64488 120.307 7.86444 120.228 8.04812ZM215.604 8.1275C215.604 8.7676 215.177 8.7391 215.12 8.09519C215.088 7.73113 215.179 7.52963 215.334 7.61969C215.483 7.70568 215.604 7.93415 215.604 8.1275ZM102.804 8.2547C102.896 8.39463 102.842 8.50912 102.684 8.50912C102.526 8.50912 102.397 8.39463 102.397 8.2547C102.397 8.11478 102.451 8.00029 102.516 8.00029C102.582 8.00029 102.712 8.11478 102.804 8.2547ZM117.778 8.39488C117.861 8.59765 118.038 8.76353 118.172 8.76353C118.562 8.76353 118.45 8.32212 118.021 8.16769C117.758 8.07305 117.677 8.14836 117.778 8.39488ZM223.727 8.40659C223.423 8.74903 223.439 8.85079 223.829 9.05508C224.48 9.3965 224.436 9.87174 223.784 9.54457C223.505 9.40464 223.18 9.37208 223.062 9.47206C222.944 9.57205 222.928 9.44433 223.026 9.18789C223.125 8.93169 223.205 8.55949 223.205 8.36105C223.205 8.16261 223.403 8.00029 223.646 8.00029C224.018 8.00029 224.031 8.06288 223.727 8.40659ZM88.1938 9.06577C88.1072 9.26853 88.0428 9.20824 88.0298 8.91185C88.0181 8.6437 88.0822 8.4936 88.1723 8.57806C88.2624 8.66253 88.2722 8.88208 88.1938 9.06577ZM218.59 8.62131C218.59 8.68313 218.468 8.80423 218.319 8.89073C218.169 8.97723 218.047 8.9266 218.047 8.77854C218.047 8.63047 218.169 8.50912 218.319 8.50912C218.468 8.50912 218.59 8.55949 218.59 8.62131ZM219.405 8.76353C219.405 8.90345 219.282 9.01794 219.133 9.01794C218.984 9.01794 218.862 8.90345 218.862 8.76353C218.862 8.6236 218.984 8.50912 219.133 8.50912C219.282 8.50912 219.405 8.6236 219.405 8.76353ZM87.4654 9.27235C87.4654 9.5522 87.3546 9.78117 87.2194 9.78117C87.084 9.78117 87.0373 9.5522 87.1152 9.27235C87.1934 8.9925 87.3041 8.76353 87.3614 8.76353C87.4184 8.76353 87.4654 8.9925 87.4654 9.27235ZM89.0943 9.27235C89.0943 9.41228 89.0405 9.52676 88.9745 9.52676C88.9086 9.52676 88.7793 9.41228 88.687 9.27235C88.5947 9.13242 88.6488 9.01794 88.8068 9.01794C88.9648 9.01794 89.0943 9.13242 89.0943 9.27235ZM86.5649 9.829C86.4783 10.0318 86.4139 9.97147 86.4009 9.67508C86.3892 9.40693 86.4533 9.25683 86.5434 9.3413C86.6336 9.42576 86.6433 9.64532 86.5649 9.829ZM227.278 10.6291C227.278 10.8159 227.094 10.9685 226.87 10.9685C226.441 10.9685 226.341 10.7436 226.644 10.4597C226.944 10.1788 227.278 10.2681 227.278 10.6291ZM49.8543 14.3776C49.7557 14.5267 49.7335 14.7035 49.8046 14.7702C49.8757 14.8368 50.0063 14.7147 50.0948 14.4987C50.2783 14.0505 50.122 13.9716 49.8543 14.3776ZM23.1743 17.7231C22.9797 17.9055 22.8532 17.9206 22.8532 17.7613C22.8532 17.6165 22.9346 17.4219 23.0343 17.3288C23.1336 17.2354 23.2783 17.2181 23.3554 17.2906C23.4325 17.3629 23.3511 17.5575 23.1743 17.7231ZM7.92179 19.2906C7.92179 19.3432 7.70814 19.5437 7.4467 19.7358C7.01614 20.052 7.00663 20.0431 7.34408 19.6396C7.69891 19.2158 7.92179 19.0812 7.92179 19.2906ZM11.9193 20.4665C11.8743 21.0267 11.451 21.1798 11.451 20.6361C11.451 20.3326 11.6918 19.9576 11.8868 19.9576C11.9272 19.9576 11.9419 20.1866 11.9193 20.4665Z" fill="#00A2C3"/>
</svg>
